<mxfile host="app.diagrams.net" modified="2020-10-15T06:09:39.723Z" agent="5.0 (Windows NT 10.0; Win64; x64) AppleWebKit/537.36 (KHTML, like Gecko) Chrome/86.0.4240.75 Safari/537.36" etag="s-oMPq9rQtvZdK02SKGf" version="13.8.0" type="github">
  <diagram id="CxGW-bVPX4PlVbUFPDgA" name="Page-1">
    <mxGraphModel dx="1200" dy="668" grid="1" gridSize="10" guides="1" tooltips="1" connect="1" arrows="1" fold="1" page="1" pageScale="1" pageWidth="827" pageHeight="1169" math="0" shadow="0">
      <root>
        <mxCell id="0" />
        <mxCell id="1" parent="0" />
        <mxCell id="Sj-fjqsD6CRJsZGYrKrY-19" style="edgeStyle=orthogonalEdgeStyle;rounded=0;orthogonalLoop=1;jettySize=auto;html=1;endArrow=block;endFill=1;" edge="1" parent="1" source="Sj-fjqsD6CRJsZGYrKrY-1" target="Sj-fjqsD6CRJsZGYrKrY-15">
          <mxGeometry relative="1" as="geometry" />
        </mxCell>
        <mxCell id="Sj-fjqsD6CRJsZGYrKrY-20" value="1" style="edgeLabel;html=1;align=center;verticalAlign=middle;resizable=0;points=[];" vertex="1" connectable="0" parent="Sj-fjqsD6CRJsZGYrKrY-19">
          <mxGeometry x="0.6971" relative="1" as="geometry">
            <mxPoint x="3" y="-12" as="offset" />
          </mxGeometry>
        </mxCell>
        <mxCell id="Sj-fjqsD6CRJsZGYrKrY-25" style="edgeStyle=orthogonalEdgeStyle;rounded=0;orthogonalLoop=1;jettySize=auto;html=1;endArrow=none;endFill=0;dashed=1;" edge="1" parent="1" source="Sj-fjqsD6CRJsZGYrKrY-1" target="Sj-fjqsD6CRJsZGYrKrY-21">
          <mxGeometry relative="1" as="geometry" />
        </mxCell>
        <mxCell id="Sj-fjqsD6CRJsZGYrKrY-14" style="edgeStyle=orthogonalEdgeStyle;rounded=0;orthogonalLoop=1;jettySize=auto;html=1;endArrow=block;endFill=0;" edge="1" parent="1" source="Sj-fjqsD6CRJsZGYrKrY-9" target="Sj-fjqsD6CRJsZGYrKrY-1">
          <mxGeometry relative="1" as="geometry" />
        </mxCell>
        <mxCell id="Sj-fjqsD6CRJsZGYrKrY-9" value="Triangles" style="swimlane;fontStyle=1;align=center;verticalAlign=top;childLayout=stackLayout;horizontal=1;startSize=26;horizontalStack=0;resizeParent=1;resizeParentMax=0;resizeLast=0;collapsible=1;marginBottom=0;" vertex="1" parent="1">
          <mxGeometry x="300" y="290" width="330" height="120" as="geometry" />
        </mxCell>
        <mxCell id="Sj-fjqsD6CRJsZGYrKrY-10" value="- base: double&#xa;- height: double" style="text;strokeColor=none;fillColor=none;align=left;verticalAlign=top;spacingLeft=4;spacingRight=4;overflow=hidden;rotatable=0;points=[[0,0.5],[1,0.5]];portConstraint=eastwest;" vertex="1" parent="Sj-fjqsD6CRJsZGYrKrY-9">
          <mxGeometry y="26" width="330" height="34" as="geometry" />
        </mxCell>
        <mxCell id="Sj-fjqsD6CRJsZGYrKrY-11" value="" style="line;strokeWidth=1;fillColor=none;align=left;verticalAlign=middle;spacingTop=-1;spacingLeft=3;spacingRight=3;rotatable=0;labelPosition=right;points=[];portConstraint=eastwest;" vertex="1" parent="Sj-fjqsD6CRJsZGYrKrY-9">
          <mxGeometry y="60" width="330" height="8" as="geometry" />
        </mxCell>
        <mxCell id="Sj-fjqsD6CRJsZGYrKrY-12" value="+ Rectangle(width: double, height: double)&#xa;+ Rectangle(width: double, height: double, colour: Colour)&#xa;+ getArea(base: double, height: double): void" style="text;strokeColor=none;fillColor=none;align=left;verticalAlign=top;spacingLeft=4;spacingRight=4;overflow=hidden;rotatable=0;points=[[0,0.5],[1,0.5]];portConstraint=eastwest;" vertex="1" parent="Sj-fjqsD6CRJsZGYrKrY-9">
          <mxGeometry y="68" width="330" height="52" as="geometry" />
        </mxCell>
        <mxCell id="Sj-fjqsD6CRJsZGYrKrY-13" style="edgeStyle=orthogonalEdgeStyle;rounded=0;orthogonalLoop=1;jettySize=auto;html=1;endArrow=block;endFill=0;" edge="1" parent="1" source="Sj-fjqsD6CRJsZGYrKrY-5" target="Sj-fjqsD6CRJsZGYrKrY-1">
          <mxGeometry relative="1" as="geometry" />
        </mxCell>
        <mxCell id="Sj-fjqsD6CRJsZGYrKrY-5" value="Squares" style="swimlane;fontStyle=1;align=center;verticalAlign=top;childLayout=stackLayout;horizontal=1;startSize=26;horizontalStack=0;resizeParent=1;resizeParentMax=0;resizeLast=0;collapsible=1;marginBottom=0;" vertex="1" parent="1">
          <mxGeometry x="-80" y="290" width="320" height="120" as="geometry" />
        </mxCell>
        <mxCell id="Sj-fjqsD6CRJsZGYrKrY-6" value="- width: double&#xa;- height: double" style="text;strokeColor=none;fillColor=none;align=left;verticalAlign=top;spacingLeft=4;spacingRight=4;overflow=hidden;rotatable=0;points=[[0,0.5],[1,0.5]];portConstraint=eastwest;" vertex="1" parent="Sj-fjqsD6CRJsZGYrKrY-5">
          <mxGeometry y="26" width="320" height="34" as="geometry" />
        </mxCell>
        <mxCell id="Sj-fjqsD6CRJsZGYrKrY-7" value="" style="line;strokeWidth=1;fillColor=none;align=left;verticalAlign=middle;spacingTop=-1;spacingLeft=3;spacingRight=3;rotatable=0;labelPosition=right;points=[];portConstraint=eastwest;" vertex="1" parent="Sj-fjqsD6CRJsZGYrKrY-5">
          <mxGeometry y="60" width="320" height="8" as="geometry" />
        </mxCell>
        <mxCell id="Sj-fjqsD6CRJsZGYrKrY-8" value="+ Rectangle(width: double, height: double)&#xa;+ Rectangle(width: double, height: double, colour: Colour)&#xa;+ getArea(width: double, height: double): void" style="text;strokeColor=none;fillColor=none;align=left;verticalAlign=top;spacingLeft=4;spacingRight=4;overflow=hidden;rotatable=0;points=[[0,0.5],[1,0.5]];portConstraint=eastwest;" vertex="1" parent="Sj-fjqsD6CRJsZGYrKrY-5">
          <mxGeometry y="68" width="320" height="52" as="geometry" />
        </mxCell>
        <mxCell id="Sj-fjqsD6CRJsZGYrKrY-15" value="Colour" style="swimlane;fontStyle=1;align=center;verticalAlign=top;childLayout=stackLayout;horizontal=1;startSize=26;horizontalStack=0;resizeParent=1;resizeParentMax=0;resizeLast=0;collapsible=1;marginBottom=0;" vertex="1" parent="1">
          <mxGeometry x="414" y="88" width="200" height="124" as="geometry" />
        </mxCell>
        <mxCell id="Sj-fjqsD6CRJsZGYrKrY-16" value="- r: int&#xa;- g: int&#xa;- b: int&#xa;+ WHITE: Colour = (255, 255, 255)" style="text;strokeColor=none;fillColor=none;align=left;verticalAlign=top;spacingLeft=4;spacingRight=4;overflow=hidden;rotatable=0;points=[[0,0.5],[1,0.5]];portConstraint=eastwest;" vertex="1" parent="Sj-fjqsD6CRJsZGYrKrY-15">
          <mxGeometry y="26" width="200" height="64" as="geometry" />
        </mxCell>
        <mxCell id="Sj-fjqsD6CRJsZGYrKrY-17" value="" style="line;strokeWidth=1;fillColor=none;align=left;verticalAlign=middle;spacingTop=-1;spacingLeft=3;spacingRight=3;rotatable=0;labelPosition=right;points=[];portConstraint=eastwest;" vertex="1" parent="Sj-fjqsD6CRJsZGYrKrY-15">
          <mxGeometry y="90" width="200" height="8" as="geometry" />
        </mxCell>
        <mxCell id="Sj-fjqsD6CRJsZGYrKrY-18" value="+ Colour(r: int, g: int, b: int): void" style="text;strokeColor=none;fillColor=none;align=left;verticalAlign=top;spacingLeft=4;spacingRight=4;overflow=hidden;rotatable=0;points=[[0,0.5],[1,0.5]];portConstraint=eastwest;" vertex="1" parent="Sj-fjqsD6CRJsZGYrKrY-15">
          <mxGeometry y="98" width="200" height="26" as="geometry" />
        </mxCell>
        <mxCell id="Sj-fjqsD6CRJsZGYrKrY-21" value="Default colour = (0, 0, 0)" style="swimlane;fontStyle=1;align=center;verticalAlign=top;childLayout=stackLayout;horizontal=1;startSize=26;horizontalStack=0;resizeParent=1;resizeParentMax=0;resizeLast=0;collapsible=1;marginBottom=0;" vertex="1" parent="1">
          <mxGeometry x="-120" y="107" width="160" height="86" as="geometry" />
        </mxCell>
        <mxCell id="Sj-fjqsD6CRJsZGYrKrY-22" value=" " style="text;strokeColor=none;fillColor=none;align=left;verticalAlign=top;spacingLeft=4;spacingRight=4;overflow=hidden;rotatable=0;points=[[0,0.5],[1,0.5]];portConstraint=eastwest;" vertex="1" parent="Sj-fjqsD6CRJsZGYrKrY-21">
          <mxGeometry y="26" width="160" height="26" as="geometry" />
        </mxCell>
        <mxCell id="Sj-fjqsD6CRJsZGYrKrY-23" value="" style="line;strokeWidth=1;fillColor=none;align=left;verticalAlign=middle;spacingTop=-1;spacingLeft=3;spacingRight=3;rotatable=0;labelPosition=right;points=[];portConstraint=eastwest;" vertex="1" parent="Sj-fjqsD6CRJsZGYrKrY-21">
          <mxGeometry y="52" width="160" height="8" as="geometry" />
        </mxCell>
        <mxCell id="Sj-fjqsD6CRJsZGYrKrY-24" value=" " style="text;strokeColor=none;fillColor=none;align=left;verticalAlign=top;spacingLeft=4;spacingRight=4;overflow=hidden;rotatable=0;points=[[0,0.5],[1,0.5]];portConstraint=eastwest;" vertex="1" parent="Sj-fjqsD6CRJsZGYrKrY-21">
          <mxGeometry y="60" width="160" height="26" as="geometry" />
        </mxCell>
        <mxCell id="Sj-fjqsD6CRJsZGYrKrY-1" value="Shape" style="swimlane;fontStyle=3;align=center;verticalAlign=top;childLayout=stackLayout;horizontal=1;startSize=26;horizontalStack=0;resizeParent=1;resizeParentMax=0;resizeLast=0;collapsible=1;marginBottom=0;" vertex="1" parent="1">
          <mxGeometry x="140" y="70" width="160" height="160" as="geometry" />
        </mxCell>
        <mxCell id="Sj-fjqsD6CRJsZGYrKrY-2" value="- name: String" style="text;strokeColor=none;fillColor=none;align=left;verticalAlign=top;spacingLeft=4;spacingRight=4;overflow=hidden;rotatable=0;points=[[0,0.5],[1,0.5]];portConstraint=eastwest;" vertex="1" parent="Sj-fjqsD6CRJsZGYrKrY-1">
          <mxGeometry y="26" width="160" height="44" as="geometry" />
        </mxCell>
        <mxCell id="Sj-fjqsD6CRJsZGYrKrY-3" value="" style="line;strokeWidth=1;fillColor=none;align=left;verticalAlign=middle;spacingTop=-1;spacingLeft=3;spacingRight=3;rotatable=0;labelPosition=right;points=[];portConstraint=eastwest;" vertex="1" parent="Sj-fjqsD6CRJsZGYrKrY-1">
          <mxGeometry y="70" width="160" height="8" as="geometry" />
        </mxCell>
        <mxCell id="Sj-fjqsD6CRJsZGYrKrY-4" value="+ Shape(name: String)&#xa;+ setColour(): Colour&#xa;+ rendered(): void&#xa;+ getArea(): double(I)" style="text;strokeColor=none;fillColor=none;align=left;verticalAlign=top;spacingLeft=4;spacingRight=4;overflow=hidden;rotatable=0;points=[[0,0.5],[1,0.5]];portConstraint=eastwest;" vertex="1" parent="Sj-fjqsD6CRJsZGYrKrY-1">
          <mxGeometry y="78" width="160" height="82" as="geometry" />
        </mxCell>
      </root>
    </mxGraphModel>
  </diagram>
</mxfile>
